<svg width="91" height="65" viewBox="0 0 91 65" fill="none" xmlns="http://www.w3.org/2000/svg">
<rect x="0.5" y="0.5" width="90" height="64" rx="9.5" stroke="#69306D"/>
<g clip-path="url(#clip0_19_4)">
<path d="M46 47.4375C46 47.4375 29.5938 38.25 29.5938 27.0937C29.5938 25.1215 30.2771 23.2102 31.5274 21.685C32.7778 20.1598 34.518 19.115 36.4519 18.7282C38.3858 18.3414 40.394 18.6366 42.1348 19.5636C43.8756 20.4905 45.2415 21.992 46 23.8125C46.7585 21.992 48.1244 20.4905 49.8652 19.5636C51.606 18.6366 53.6142 18.3414 55.5481 18.7282C57.482 19.115 59.2222 20.1598 60.4726 21.685C61.7229 23.2102 62.4062 25.1215 62.4062 27.0937C62.4062 38.25 46 47.4375 46 47.4375Z" fill="#E5A8DC" stroke="#69306D" stroke-width="2" stroke-linecap="round" stroke-linejoin="round"/>
</g>
<defs>
<clipPath id="clip0_19_4">
<rect width="42" height="42" fill="white" transform="translate(25 12)"/>
</clipPath>
</defs>
</svg>
