<svg width="130" height="24" viewBox="0 0 130 24" fill="none" xmlns="http://www.w3.org/2000/svg">
<g clip-path="url(#clip0_3_251)">
<path fill-rule="evenodd" clip-rule="evenodd" d="M11.6663 1.43407L14.4897 7.42859C14.5935 7.65503 14.8034 7.81479 15.0493 7.85455L21.3627 8.81582C21.6482 8.87117 21.88 9.079 21.9661 9.35669C22.0522 9.63438 21.9786 9.93692 21.7746 10.144L17.2061 14.8101C17.0297 14.993 16.9505 15.2487 16.9924 15.4993L18.0709 22.088C18.1297 22.3712 18.0206 22.663 17.7905 22.8383C17.5603 23.0135 17.25 23.0409 16.9926 22.9088L11.3457 19.7981C11.1305 19.6788 10.8692 19.6788 10.654 19.7981L5.00708 22.9088C4.74973 23.0409 4.43938 23.0135 4.20921 22.8383C3.97905 22.663 3.86998 22.3712 3.92881 22.088L5.00728 15.4993C5.04924 15.2487 4.96996 14.993 4.79355 14.8101L0.225081 10.144C0.021062 9.93692 -0.05252 9.63438 0.0335878 9.3567C0.119696 9.07902 0.351539 8.87119 0.636948 8.81584L6.95042 7.85456C7.19631 7.8148 7.40618 7.65503 7.50996 7.42859L10.3334 1.43407C10.4501 1.17021 10.7114 1 10.9998 1C11.2883 1 11.5496 1.17021 11.6663 1.43407Z" fill="#F6AB27"/>
<path fill-rule="evenodd" clip-rule="evenodd" d="M6.50466 15.7444C6.6241 15.0171 6.39124 14.2762 5.87717 13.748L2.30261 10.097L7.1792 9.35466C7.92444 9.23903 8.56311 8.75975 8.88239 8.07651L11.0001 3.58017L13.117 8.07522C13.4363 8.75901 14.0752 9.23879 14.8209 9.35463L19.6975 10.0969L16.1222 13.7487C15.6085 14.2772 15.3759 15.0181 15.4955 15.7453L16.3241 20.8082L12.078 18.4692C11.4073 18.0989 10.5934 18.0988 9.92253 18.4688L5.67603 20.8082L6.50466 15.7444Z" fill="#F4CD1E"/>
</g>
<g clip-path="url(#clip1_3_251)">
<path fill-rule="evenodd" clip-rule="evenodd" d="M65.6663 1.43423L68.4897 7.43101C68.5935 7.65753 68.8034 7.81736 69.0493 7.85713L75.3627 8.81876C75.6482 8.87413 75.88 9.08204 75.9661 9.35983C76.0522 9.63763 75.9786 9.94028 75.7746 10.1475L71.2061 14.8153C71.0297 14.9983 70.9505 15.2541 70.9924 15.5048L72.0709 22.0959C72.1297 22.3792 72.0206 22.6712 71.7905 22.8465C71.5603 23.0218 71.25 23.0492 70.9926 22.9171L65.3457 19.8052C65.1305 19.6859 64.8692 19.6859 64.654 19.8052L59.0071 22.9171C58.7497 23.0492 58.4394 23.0218 58.2092 22.8465C57.979 22.6712 57.87 22.3792 57.9288 22.0959L59.0073 15.5048C59.0492 15.2541 58.97 14.9983 58.7936 14.8153L54.2251 10.1475C54.0211 9.94028 53.9475 9.63763 54.0336 9.35985C54.1197 9.08206 54.3515 8.87415 54.6369 8.81878L60.9504 7.85714C61.1963 7.81736 61.4062 7.65753 61.51 7.43101L64.3334 1.43423C64.4501 1.17027 64.7114 1 64.9998 1C65.2883 1 65.5496 1.17027 65.6663 1.43423Z" fill="#F6AB27"/>
<path fill-rule="evenodd" clip-rule="evenodd" d="M60.5047 15.7499C60.6241 15.0223 60.3912 14.2812 59.8772 13.7528L56.3026 10.1004L61.1792 9.3578C61.9244 9.24213 62.5631 8.76266 62.8824 8.07917L65.0001 3.58113L67.117 8.07787C67.4363 8.76193 68.0752 9.24188 68.8209 9.35777L73.6975 10.1004L70.1222 13.7535C69.6085 14.2822 69.3759 15.0233 69.4955 15.7509L70.3241 20.8157L66.078 18.4758C65.4073 18.1053 64.5934 18.1052 63.9225 18.4754L59.676 20.8157L60.5047 15.7499Z" fill="#F4CD1E"/>
</g>
<g clip-path="url(#clip2_3_251)">
<path fill-rule="evenodd" clip-rule="evenodd" d="M38.6663 1.43423L41.4897 7.43101C41.5935 7.65753 41.8034 7.81736 42.0493 7.85713L48.3627 8.81876C48.6482 8.87413 48.88 9.08204 48.9661 9.35983C49.0522 9.63763 48.9786 9.94028 48.7746 10.1475L44.2061 14.8153C44.0297 14.9983 43.9505 15.2541 43.9924 15.5048L45.0709 22.0959C45.1297 22.3792 45.0206 22.6712 44.7905 22.8465C44.5603 23.0218 44.25 23.0492 43.9926 22.9171L38.3457 19.8052C38.1305 19.6859 37.8692 19.6859 37.654 19.8052L32.0071 22.9171C31.7497 23.0492 31.4394 23.0218 31.2092 22.8465C30.979 22.6712 30.87 22.3792 30.9288 22.0959L32.0073 15.5048C32.0492 15.2541 31.97 14.9983 31.7936 14.8153L27.2251 10.1475C27.0211 9.94028 26.9475 9.63763 27.0336 9.35985C27.1197 9.08206 27.3515 8.87415 27.6369 8.81878L33.9504 7.85714C34.1963 7.81736 34.4062 7.65753 34.51 7.43101L37.3334 1.43423C37.4501 1.17027 37.7114 1 37.9998 1C38.2883 1 38.5496 1.17027 38.6663 1.43423Z" fill="#F6AB27"/>
<path fill-rule="evenodd" clip-rule="evenodd" d="M33.5047 15.7499C33.6241 15.0223 33.3912 14.2812 32.8772 13.7528L29.3026 10.1004L34.1792 9.3578C34.9244 9.24213 35.5631 8.76266 35.8824 8.07917L38.0001 3.58113L40.117 8.07787C40.4363 8.76193 41.0752 9.24188 41.8209 9.35777L46.6975 10.1004L43.1222 13.7535C42.6085 14.2822 42.3759 15.0233 42.4955 15.7509L43.3241 20.8157L39.078 18.4758C38.4073 18.1053 37.5934 18.1052 36.9225 18.4754L32.676 20.8157L33.5047 15.7499Z" fill="#F4CD1E"/>
</g>
<g clip-path="url(#clip3_3_251)">
<path fill-rule="evenodd" clip-rule="evenodd" d="M91.6663 1.43423L94.4897 7.43101C94.5935 7.65753 94.8034 7.81736 95.0493 7.85713L101.363 8.81876C101.648 8.87413 101.88 9.08204 101.966 9.35983C102.052 9.63763 101.979 9.94028 101.775 10.1475L97.2061 14.8153C97.0297 14.9983 96.9505 15.2541 96.9924 15.5048L98.0709 22.0959C98.1297 22.3792 98.0206 22.6712 97.7905 22.8465C97.5603 23.0218 97.25 23.0492 96.9926 22.9171L91.3457 19.8052C91.1305 19.6859 90.8692 19.6859 90.654 19.8052L85.0071 22.9171C84.7497 23.0492 84.4394 23.0218 84.2092 22.8465C83.979 22.6712 83.87 22.3792 83.9288 22.0959L85.0073 15.5048C85.0492 15.2541 84.97 14.9983 84.7936 14.8153L80.2251 10.1475C80.0211 9.94028 79.9475 9.63763 80.0336 9.35985C80.1197 9.08206 80.3515 8.87415 80.6369 8.81878L86.9504 7.85714C87.1963 7.81736 87.4062 7.65753 87.51 7.43101L90.3334 1.43423C90.4501 1.17027 90.7114 1 90.9998 1C91.2883 1 91.5496 1.17027 91.6663 1.43423Z" fill="#F6AB27"/>
<path fill-rule="evenodd" clip-rule="evenodd" d="M86.5047 15.7499C86.6241 15.0223 86.3912 14.2812 85.8772 13.7528L82.3026 10.1004L87.1792 9.3578C87.9244 9.24213 88.5631 8.76266 88.8824 8.07917L91.0001 3.58113L93.117 8.07787C93.4363 8.76193 94.0752 9.24188 94.8209 9.35777L99.6975 10.1004L96.1222 13.7535C95.6085 14.2822 95.3759 15.0233 95.4955 15.7509L96.3241 20.8157L92.078 18.4758C91.4073 18.1053 90.5934 18.1052 89.9225 18.4754L85.676 20.8157L86.5047 15.7499Z" fill="#F4CD1E"/>
</g>
<g clip-path="url(#clip4_3_251)">
<path fill-rule="evenodd" clip-rule="evenodd" d="M118.666 1.43423L121.49 7.43101C121.594 7.65753 121.803 7.81736 122.049 7.85713L128.363 8.81876C128.648 8.87413 128.88 9.08204 128.966 9.35983C129.052 9.63763 128.979 9.94028 128.775 10.1475L124.206 14.8153C124.03 14.9983 123.95 15.2541 123.992 15.5048L125.071 22.0959C125.13 22.3792 125.021 22.6712 124.79 22.8465C124.56 23.0218 124.25 23.0492 123.993 22.9171L118.346 19.8052C118.131 19.6859 117.869 19.6859 117.654 19.8052L112.007 22.9171C111.75 23.0492 111.439 23.0218 111.209 22.8465C110.979 22.6712 110.87 22.3792 110.929 22.0959L112.007 15.5048C112.049 15.2541 111.97 14.9983 111.794 14.8153L107.225 10.1475C107.021 9.94028 106.947 9.63763 107.034 9.35985C107.12 9.08206 107.352 8.87415 107.637 8.81878L113.95 7.85714C114.196 7.81736 114.406 7.65753 114.51 7.43101L117.333 1.43423C117.45 1.17027 117.711 1 118 1C118.288 1 118.55 1.17027 118.666 1.43423Z" fill="black" fill-opacity="0.49"/>
<path fill-rule="evenodd" clip-rule="evenodd" d="M113.505 15.7499C113.624 15.0223 113.391 14.2812 112.877 13.7528L109.303 10.1004L114.179 9.3578C114.924 9.24213 115.563 8.76266 115.882 8.07917L118 3.58113L120.117 8.07787C120.436 8.76193 121.075 9.24188 121.821 9.35777L126.698 10.1004L123.122 13.7535C122.608 14.2822 122.376 15.0233 122.496 15.7509L123.324 20.8157L119.078 18.4758C118.407 18.1053 117.593 18.1052 116.923 18.4754L112.676 20.8157L113.505 15.7499Z" fill="#F5F5F5"/>
</g>
<defs>
<clipPath id="clip0_3_251">
<rect width="22" height="22" fill="white" transform="translate(0 1)"/>
</clipPath>
<clipPath id="clip1_3_251">
<rect width="22" height="22" fill="white" transform="translate(54 1)"/>
</clipPath>
<clipPath id="clip2_3_251">
<rect width="22" height="22" fill="white" transform="translate(27 1)"/>
</clipPath>
<clipPath id="clip3_3_251">
<rect width="22" height="22" fill="white" transform="translate(80 1)"/>
</clipPath>
<clipPath id="clip4_3_251">
<rect width="22" height="22" fill="white" transform="translate(107 1)"/>
</clipPath>
</defs>
</svg>
